<?xml version="1.0" encoding="UTF-8" standalone="no"?>
<svg width="16px" height="16px" viewBox="0 0 16 16" version="1.1" xmlns="http://www.w3.org/2000/svg" xmlns:xlink="http://www.w3.org/1999/xlink">
    <!-- Generator: Sketch 3.8.3 (29802) - http://www.bohemiancoding.com/sketch -->
    <title>add_layer</title>
    <desc>Created with Sketch.</desc>
    <defs></defs>
    <g id="Page-1" stroke="none" stroke-width="1" fill="none" fill-rule="evenodd">
        <g id="add_layer" fill="#000000">
            <path d="M14,10 L14,2 L2,2 L2,14 L10,14 L10,12.9989566 C10,12.4472481 10.4378814,12 11.0029293,12 L4,12 L4,4 L12,4 L12,11.0029291 C12,10.4490268 12.4426603,10 12.9989566,10 L14,10 L14,10 Z" id="Combined-Shape"></path>
            <rect id="Rectangle-8" fill-opacity="0.300000012" x="4" y="4" width="8" height="8"></rect>
            <polygon id="Combined-Shape" points="14 13 14 11 13 11 13 13 11 13 11 14 13 14 13 16 14 16 14 14 16 14 16 13"></polygon>
        </g>
    </g>
</svg>