<svg><defs><svg id="add_animation" viewBox="0 0 16 16" width="16" height="16"><title>add_animation</title><g fill-rule="evenodd"><path d="M3.006 14A1.998 1.998 0 0 1 1 12V4h14v7.499-.502c0-.544-.447-.997-.999-.997h-1.002a.995.995 0 0 0-.999.997V12h-.997a.994.994 0 0 0-1.003.999V14H3.006zM6 6v6l4.714-3L6 6z"/><path d="M1 4.752V4.01c0-.797.462-1.485 1.133-1.81l1.2 1.8H1v.752zM5.333 4L4 2h2l1.333 2h-2zM15 4.256V4.01A2.009 2.009 0 0 0 12.994 2H12l1.333 2H15v.256zM9.333 4L8 2h2l1.333 2z" fill-opacity=".3"/><path d="M14 13v-2h-1v2h-2v1h2v2h1v-2h2v-1z"/></g></svg><svg id="add_layer" viewBox="0 0 16 16" width="16" height="16"><title>add_layer</title><g fill-rule="evenodd"><path d="M14 10V2H2v12h8v-1.001A.994.994 0 0 1 11.003 12H4V4h8v7.003A.998.998 0 0 1 12.999 10H14z"/><path fill-opacity=".3" d="M4 4h8v8H4z"/><path d="M14 13v-2h-1v2h-2v1h2v2h1v-2h2v-1z"/></g></svg><svg id="animation" viewBox="0 0 16 16" width="16" height="16"><title>animation</title><g fill-rule="evenodd"><path d="M1 4h14v8c0 1.105-.897 2-2.006 2H3.006A1.998 1.998 0 0 1 1 12V4zm5 2v6l4.714-3L6 6z"/><path d="M1 4.752V4.01c0-.797.462-1.485 1.133-1.81l1.2 1.8H1v.752zM5.333 4L4 2h2l1.333 2h-2zM15 4.256V4.01A2.009 2.009 0 0 0 12.994 2H12l1.333 2H15v.256zM9.333 4L8 2h2l1.333 2z" fill-opacity=".3"/></g></svg><svg id="animation_block" viewBox="0 0 16 16" width="16" height="16"><title>animation_block</title><path d="M12.89 5.523a6 6 0 1 1-1.414-1.414l1.34-1.339 1.414 1.414-1.34 1.34zM8 13a4 4 0 1 0 0-8 4 4 0 0 0 0 8zM6 1h4v1H6V1zm1.5 5h1v3h-1V6z" fill-rule="evenodd"/></svg><svg id="artwork" viewBox="0 0 16 16" width="16" height="16"><title>artwork</title><g fill-rule="evenodd"><path d="M1 4.009C1 2.899 1.897 2 3.006 2h9.988A2.01 2.01 0 0 1 15 4.009v7.982c0 1.11-.897 2.009-2.006 2.009H3.006A2.009 2.009 0 0 1 1 11.991V4.01zm6.032 5.7L10 6l4 5H2l3-4 2.032 2.71z"/><path fill-opacity=".3" d="M5 7l-3 4h4l1.032-1.29z"/></g></svg><svg id="layer" viewBox="0 0 16 16" width="16" height="16"><title>layer</title><g fill-rule="evenodd"><path fill-opacity=".3" d="M4 4h8v8H4z"/><path d="M14 4.913v6.173c.583.208 1 .767 1 1.415v.998c0 .83-.679 1.501-1.5 1.501h-1c-.651 0-1.207-.42-1.413-1H4.914c-.208.583-.767 1-1.415 1h-.998A1.504 1.504 0 0 1 1 13.5v-1c0-.651.42-1.207 1-1.413V4.914c-.583-.208-1-.767-1-1.415v-.998C1 1.67 1.679 1 2.5 1h1c.651 0 1.207.42 1.413 1h6.173c.208-.583.767-1 1.415-1h.998C14.33 1 15 1.679 15 2.5v1c0 .651-.42 1.207-1 1.413zm-2-2.412v.998c0 .273.227.501.5.501h1c.272 0 .5-.227.5-.5v-1c0-.272-.227-.5-.5-.5h-1c-.272 0-.5.227-.5.5zm-10 0v.998c0 .273.227.501.5.501h1c.272 0 .5-.227.5-.5v-1c0-.272-.227-.5-.5-.5h-1c-.272 0-.5.227-.5.5zm10 10v.998c0 .273.227.501.5.501h1c.272 0 .5-.227.5-.5v-1c0-.272-.227-.5-.5-.5h-1c-.272 0-.5.227-.5.5zm-10 0v.998c0 .273.227.501.5.501h1c.272 0 .5-.227.5-.5v-1c0-.272-.227-.5-.5-.5h-1c-.272 0-.5.227-.5.5zM11.087 4H4.914c-.152.425-.49.762-.914.913v6.173c.425.152.762.49.913.914h6.173c.152-.425.49-.762.914-.913V4.914A1.513 1.513 0 0 1 11.087 4z"/></g></svg><svg id="layer_group" viewBox="0 0 16 16" width="16" height="16"><title>layer_group</title><path d="M1 4.997A3.003 3.003 0 0 1 4.004 2h3.075L9 4h3c1.657 0 3 1.349 3 3v4a3 3 0 0 1-3.003 3H4.003A3 3 0 0 1 1 11.003V4.997zM3 6h9.005c.55 0 .995.451.995.99v4.02a1 1 0 0 1-.995.99h-8.01A.998.998 0 0 1 3 11.01V6z" fill-rule="evenodd"/></svg><svg id="mask_layer" viewBox="0 0 16 16" width="16" height="16"><title>mask_layer</title><g fill-rule="evenodd"><path d="M1 1h14v14H1V1zm1 1h12v12H2V2z" fill-opacity=".3"/><path d="M7.5 5h-1C5.68 5 5 5.672 5 6.5v1c0 .647.417 1.206 1 1.414V15h2V8.913A1.51 1.51 0 0 0 8.914 8H15V6H8.913c-.206-.58-.762-1-1.414-1zM6 6.5v1c0 .272.227.5.5.5h1c.272 0 .5-.227.5-.5v-1c0-.272-.227-.5-.5-.5h-1c-.272 0-.5.227-.5.5z"/><path fill-opacity=".3" d="M8 8h6v6H8z"/></g></svg><svg id="path_layer" viewBox="0 0 16 16" width="16" height="16"><title>path_layer</title><g fill-rule="evenodd"><path fill-opacity=".3" d="M4 4h8v8H4z"/><path d="M14 4.913v6.173c.583.208 1 .767 1 1.415v.998c0 .83-.679 1.501-1.5 1.501h-1c-.651 0-1.207-.42-1.413-1H4.914c-.208.583-.767 1-1.415 1h-.998A1.504 1.504 0 0 1 1 13.5v-1c0-.651.42-1.207 1-1.413V4.914c-.583-.208-1-.767-1-1.415v-.998C1 1.67 1.679 1 2.5 1h1c.651 0 1.207.42 1.413 1h6.173c.208-.583.767-1 1.415-1h.998C14.33 1 15 1.679 15 2.5v1c0 .651-.42 1.207-1 1.413zm-2-2.412v.998c0 .273.227.501.5.501h1c.272 0 .5-.227.5-.5v-1c0-.272-.227-.5-.5-.5h-1c-.272 0-.5.227-.5.5zm-10 0v.998c0 .273.227.501.5.501h1c.272 0 .5-.227.5-.5v-1c0-.272-.227-.5-.5-.5h-1c-.272 0-.5.227-.5.5zm10 10v.998c0 .273.227.501.5.501h1c.272 0 .5-.227.5-.5v-1c0-.272-.227-.5-.5-.5h-1c-.272 0-.5.227-.5.5zm-10 0v.998c0 .273.227.501.5.501h1c.272 0 .5-.227.5-.5v-1c0-.272-.227-.5-.5-.5h-1c-.272 0-.5.227-.5.5zM11.087 4H4.914c-.152.425-.49.762-.914.913v6.173c.425.152.762.49.913.914h6.173c.152-.425.49-.762.914-.913V4.914A1.513 1.513 0 0 1 11.087 4z"/></g></svg></defs></svg>